<svg xmlns="http://www.w3.org/2000/svg" fill="none" viewBox="0 0 200 200" height="200" width="200">
<path fill="#FF8732" d="M138.554 144.503C130.98 148.778 117.988 150 100.015 150C82.0421 150 69.0494 148.778 61.4761 144.503C56.9306 141.943 54.6296 138.453 54.6296 135.951C54.6296 134.526 55.3878 133.712 57.0759 133.712H142.952C144.642 133.712 145.399 134.526 145.399 135.951C145.4 138.453 143.099 141.943 138.554 144.503ZM142.952 78.1848H57.0759C55.3878 78.1848 54.6296 77.3123 54.6296 75.7422C54.6296 66.4336 68.6415 50 100.015 50C131.098 50 145.4 66.4336 145.4 75.7422C145.4 77.3123 144.642 78.1848 142.952 78.1848Z"></path>
<path fill="#D62300" d="M72.9229 116.58C72.6603 116.173 72.6321 115.911 72.6321 115.795C72.6321 115.475 72.8072 115.243 73.1558 114.923C73.9717 114.166 75.9819 112.276 77.0886 110.56C77.9327 109.251 78.2828 108.058 78.2828 107.07C78.2828 104.54 75.9819 102.561 73.4762 102.561C71.874 102.561 70.3594 103.463 69.3402 105.121C67.9709 107.331 66.339 109.891 65.2917 110.91C65.0291 111.172 64.8838 111.23 64.6805 111.23C64.3304 111.23 64.185 110.997 64.185 110.62V107.71C64.185 104.86 62.4953 102.561 59.4363 102.561C56.3491 102.561 54.6875 104.859 54.6875 107.71V125.628C54.6875 128.478 56.3475 130.777 59.4363 130.777C62.4953 130.777 64.185 128.48 64.185 125.628V121.498C64.185 121.149 64.3304 120.888 64.6805 120.888C65.1464 120.888 65.2636 121.353 65.3793 121.586C66.0498 123.186 68.0006 126.588 69.8076 128.595C71.0315 129.933 72.5462 130.777 74.1484 130.777C76.8573 130.777 79.1301 128.42 79.1301 125.89C79.1301 124.32 78.4595 123.156 77.1777 121.761C75.5458 119.983 73.6232 117.656 72.9229 116.58Z"></path>
<path fill="#D62300" d="M109.25 100.902C113.824 100.902 116.707 97.9928 116.707 93.7475C116.707 91.0426 115.076 89.1806 111.813 89.1806H110.882C109.162 89.1806 107.823 89.9953 107.823 91.8277C107.823 93.4572 109.25 94.2423 110.328 94.2423C110.882 94.2423 111.232 94.4171 111.232 94.8244C111.232 95.3473 110.621 95.6969 109.92 95.6969C107.735 95.6969 106.25 94.1549 106.25 91.2752C106.25 88.0756 108.29 86.9128 109.863 86.9128C111.785 86.9128 112.106 87.9023 113.445 87.9023C114.99 87.9023 116.038 86.6225 116.038 85.2849C116.038 84.2953 115.601 83.5399 114.932 83.0155C113.708 82.1133 111.99 81.4453 109.426 81.4453C104.911 81.4453 100.512 84.4124 100.512 91.2767C100.51 97.8477 104.909 100.902 109.25 100.902Z"></path>
<path fill="#D62300" d="M58.0372 100.727H62.1451C66.0201 100.727 68.3789 98.1379 68.3789 94.9102C68.3789 92.3209 66.8345 91.1284 66.4859 90.8381C66.3405 90.721 66.1952 90.6055 66.1952 90.4885C66.1952 90.3433 66.2827 90.2856 66.4281 90.1108C66.9814 89.4708 67.5348 88.4532 67.5348 86.9689C67.5348 83.479 65.1745 81.6169 61.5042 81.6169H58.0372C55.7363 81.6169 54.6296 82.9561 54.6296 84.7588V97.5854C54.6296 99.3897 55.7363 100.727 58.0372 100.727ZM59.7567 86.6208C59.7567 86.2431 59.9896 85.9513 60.4851 85.9513H60.8634C62.1154 85.9513 62.4953 86.8237 62.4953 87.5807C62.4953 88.2784 62.117 89.2679 60.8634 89.2679H60.4851C59.9896 89.2679 59.7567 88.9776 59.7567 88.5984V86.6208ZM59.7567 93.4275C59.7567 93.0497 59.9896 92.7579 60.4851 92.7579H61.0087C62.4077 92.7579 62.8141 93.6881 62.8141 94.5325C62.8141 95.2895 62.4062 96.3649 61.0087 96.3649H60.4851C59.9896 96.3649 59.7567 96.0746 59.7567 95.6953V93.4275Z"></path>
<path fill="#D62300" d="M134.097 100.872C135.962 100.872 136.981 99.4756 136.981 97.7306V94.648C136.981 94.2703 137.156 94.0955 137.447 94.0955C137.797 94.0955 137.913 94.2984 137.971 94.648C138.233 96.1308 138.932 98.138 139.718 99.1572C140.709 100.467 141.641 100.874 142.572 100.874C144.087 100.874 145.399 99.6816 145.399 98.1973C145.399 97.2077 144.991 96.4804 144.467 95.8124C143.476 94.5622 142.865 93.7474 142.487 92.7298C142.399 92.4973 142.457 92.2928 142.719 92.0899C143.623 91.3922 144.672 89.8502 144.672 87.4075C144.672 83.7131 141.613 81.6185 137.913 81.6185H134.621C132.32 81.6185 131.213 82.9561 131.213 84.7604V97.7337C131.213 99.4771 132.232 100.872 134.097 100.872ZM136.661 87.1156C136.661 86.7379 136.894 86.4461 137.389 86.4461H137.797C139.021 86.4461 139.399 87.3185 139.399 88.0755C139.399 88.8029 139.021 89.7627 137.797 89.7627H137.389C136.894 89.7627 136.661 89.4724 136.661 89.0932V87.1156Z"></path>
<path fill="#D62300" d="M86.2062 102.56C82.944 102.56 81.1667 105.002 81.1667 108.057V125.277C81.1667 128.331 82.944 130.774 86.2062 130.774C89.4685 130.774 91.2458 128.331 91.2458 125.277V108.057C91.2458 105.004 89.47 102.56 86.2062 102.56Z"></path>
<path fill="#D62300" d="M138 113.758H136.573C134.01 113.758 132.029 114.951 132.029 117.568C132.029 119.953 134.185 121.088 135.787 121.088C136.573 121.088 137.127 121.321 137.127 121.931C137.127 122.688 136.195 123.181 135.204 123.181C131.912 123.181 129.669 120.941 129.669 116.782C129.669 112.157 132.728 110.47 135.087 110.47C137.971 110.47 138.436 111.925 140.447 111.925C142.777 111.925 144.35 110.034 144.35 108.115C144.35 106.69 143.709 105.585 142.69 104.828C140.912 103.518 138.233 102.558 134.446 102.558C127.659 102.558 121.045 106.833 121.045 116.782C121.045 126.293 127.657 130.743 134.183 130.743C141.028 130.743 145.369 126.526 145.369 120.359C145.37 116.463 142.924 113.758 138 113.758Z"></path>
<path fill="#D62300" d="M126.99 100.727C128.622 100.727 129.903 99.7675 129.903 98.0225C129.903 96.3056 128.622 95.3458 126.99 95.3458H124.368C123.873 95.3458 123.64 95.0554 123.64 94.6762V94.1237C123.64 93.7459 123.873 93.4541 124.368 93.4541H126.379C127.778 93.4541 128.884 92.6112 128.884 91.1269C128.884 89.6442 127.778 88.7998 126.379 88.7998H124.368C123.873 88.7998 123.64 88.5095 123.64 88.1302V87.6651C123.64 87.2874 123.873 86.9955 124.368 86.9955H126.99C128.622 86.9955 129.903 86.0356 129.903 84.2907C129.903 82.5738 128.622 81.6139 126.99 81.6139H121.484C119.183 81.6139 118.077 82.9515 118.077 84.7558V97.5824C118.077 99.3851 119.183 100.724 121.484 100.724H126.99V100.727Z"></path>
<path fill="#D62300" d="M76.9432 100.872C81.6623 100.872 84.1679 98.0505 84.1679 94.5029V84.7011C84.1679 82.9561 83.1488 81.5592 81.284 81.5592C79.4192 81.5592 78.4 82.9561 78.4 84.7011V94.1829C78.4 94.8806 77.9921 95.6953 76.9432 95.6953C75.8943 95.6953 75.5442 94.8806 75.5442 94.1829V84.7011C75.5442 82.9561 74.4953 81.5592 72.6305 81.5592C70.7657 81.5592 69.7466 82.9561 69.7466 84.7011V94.5029C69.7481 98.0521 72.2241 100.872 76.9432 100.872Z"></path>
<path fill="#D62300" d="M97.3935 100.872C98.9082 100.872 100.22 99.68 100.22 98.1957C100.22 97.2061 99.8116 96.4788 99.288 95.8108C98.4439 94.7057 97.6858 93.7459 97.3075 92.7282C97.22 92.4957 97.2778 92.2912 97.5404 92.0883C98.4439 91.3906 99.4928 89.8486 99.4928 87.4059C99.4928 83.7115 96.4337 81.6169 92.7338 81.6169H89.4403C87.1394 81.6169 86.0327 82.9545 86.0327 84.7588V97.7321C86.0327 99.4771 87.0519 100.874 88.9167 100.874C90.7815 100.874 91.8006 99.4771 91.8006 97.7321V94.6496C91.8006 94.2718 91.9757 94.097 92.2664 94.097C92.6166 94.097 92.7323 94.2999 92.7901 94.6496C93.0527 96.1323 93.7514 98.1395 94.5377 99.1587C95.5287 100.465 96.4603 100.872 97.3935 100.872ZM92.615 89.7612H92.207C91.7115 89.7612 91.4786 89.4709 91.4786 89.0916V87.1156C91.4786 86.7379 91.7115 86.446 92.207 86.446H92.615C93.8389 86.446 94.2172 87.3185 94.2172 88.0755C94.2172 88.8013 93.8389 89.7612 92.615 89.7612Z"></path>
<path fill="#D62300" d="M114.142 102.56C111.141 102.56 109.511 104.799 109.511 107.621V113.904C109.511 114.426 109.336 114.661 109.015 114.661C108.782 114.661 108.607 114.515 108.404 114.108L104.356 106.254C102.811 103.257 101.209 102.56 99.374 102.56C96.315 102.56 94.6252 104.857 94.6252 107.737V125.714C94.6252 128.536 96.2571 130.776 99.2568 130.776C102.258 130.776 103.888 128.536 103.888 125.714V119.432C103.888 118.909 104.063 118.675 104.384 118.675C104.617 118.675 104.792 118.82 104.995 119.227L109.043 127.081C110.588 130.078 112.248 130.776 114.025 130.776C117.084 130.776 118.774 128.478 118.774 125.599V107.621C118.774 104.799 117.144 102.56 114.142 102.56Z"></path>
<path fill="#D62300" d="M141.269 147.525C141.269 146.743 141.875 146.089 142.707 146.089C143.538 146.089 144.145 146.743 144.145 147.525C144.145 148.364 143.538 148.97 142.707 148.97C141.875 148.971 141.269 148.355 141.269 147.525ZM143.832 147.525C143.832 146.802 143.265 146.382 142.707 146.382C142.149 146.382 141.581 146.802 141.581 147.525C141.581 148.277 142.149 148.676 142.707 148.676C143.265 148.676 143.832 148.277 143.832 147.525ZM142.208 148.141V146.921C142.208 146.842 142.277 146.764 142.355 146.764H142.766C143.088 146.764 143.313 146.96 143.313 147.223C143.313 147.448 143.187 147.643 142.893 147.692L143.215 148.054C143.245 148.083 143.263 148.122 143.263 148.15C143.263 148.238 143.204 148.297 143.116 148.297C143.057 148.297 143.018 148.267 142.99 148.228L142.56 147.721H142.511V148.141C142.511 148.219 142.443 148.288 142.355 148.288C142.277 148.286 142.208 148.219 142.208 148.141ZM142.727 147.447C142.904 147.447 143.001 147.359 143.001 147.242C143.001 147.116 142.913 147.047 142.757 147.047H142.513V147.448H142.727V147.447Z"></path>
</svg>
